<mxfile host="app.diagrams.net" agent="Mozilla/5.0 (X11; Linux x86_64; rv:133.0) Gecko/20100101 Firefox/133.0" version="25.0.3">
  <diagram name="Page-1" id="KvRAbFXGMKusidXB823i">
    <mxGraphModel dx="1035" dy="562" grid="1" gridSize="10" guides="1" tooltips="1" connect="1" arrows="1" fold="1" page="1" pageScale="1" pageWidth="850" pageHeight="1100" math="0" shadow="0">
      <root>
        <mxCell id="0" />
        <mxCell id="1" parent="0" />
        <mxCell id="lL323Zc3xE1iprVFfcl4-1" style="edgeStyle=orthogonalEdgeStyle;rounded=0;orthogonalLoop=1;jettySize=auto;html=1;exitX=1;exitY=1;exitDx=0;exitDy=0;entryX=0.5;entryY=0;entryDx=0;entryDy=0;" edge="1" parent="1" source="lL323Zc3xE1iprVFfcl4-3" target="lL323Zc3xE1iprVFfcl4-14">
          <mxGeometry relative="1" as="geometry" />
        </mxCell>
        <mxCell id="lL323Zc3xE1iprVFfcl4-2" style="edgeStyle=orthogonalEdgeStyle;rounded=0;orthogonalLoop=1;jettySize=auto;html=1;exitX=0;exitY=0.5;exitDx=0;exitDy=0;entryX=0.5;entryY=0;entryDx=0;entryDy=0;" edge="1" parent="1" source="lL323Zc3xE1iprVFfcl4-3" target="lL323Zc3xE1iprVFfcl4-63">
          <mxGeometry relative="1" as="geometry" />
        </mxCell>
        <mxCell id="lL323Zc3xE1iprVFfcl4-3" value="W1 == 1" style="rhombus;whiteSpace=wrap;html=1;" vertex="1" parent="1">
          <mxGeometry x="190" y="200" width="80" height="80" as="geometry" />
        </mxCell>
        <mxCell id="lL323Zc3xE1iprVFfcl4-4" value="W4" style="shape=parallelogram;perimeter=parallelogramPerimeter;whiteSpace=wrap;html=1;fixedSize=1;" vertex="1" parent="1">
          <mxGeometry x="565" y="30" width="80" height="60" as="geometry" />
        </mxCell>
        <mxCell id="lL323Zc3xE1iprVFfcl4-5" value="W3" style="shape=parallelogram;perimeter=parallelogramPerimeter;whiteSpace=wrap;html=1;fixedSize=1;" vertex="1" parent="1">
          <mxGeometry x="445" y="30" width="80" height="60" as="geometry" />
        </mxCell>
        <mxCell id="lL323Zc3xE1iprVFfcl4-6" value="W2" style="shape=parallelogram;perimeter=parallelogramPerimeter;whiteSpace=wrap;html=1;fixedSize=1;fontStyle=1" vertex="1" parent="1">
          <mxGeometry x="315" y="30" width="80" height="60" as="geometry" />
        </mxCell>
        <mxCell id="lL323Zc3xE1iprVFfcl4-7" value="W1" style="shape=parallelogram;perimeter=parallelogramPerimeter;whiteSpace=wrap;html=1;fixedSize=1;" vertex="1" parent="1">
          <mxGeometry x="185" y="30" width="80" height="60" as="geometry" />
        </mxCell>
        <mxCell id="lL323Zc3xE1iprVFfcl4-8" value="No" style="text;strokeColor=none;fillColor=none;align=left;verticalAlign=middle;spacingLeft=4;spacingRight=4;overflow=hidden;points=[[0,0.5],[1,0.5]];portConstraint=eastwest;rotatable=0;whiteSpace=wrap;html=1;" vertex="1" parent="1">
          <mxGeometry x="380" y="270" width="30" height="30" as="geometry" />
        </mxCell>
        <mxCell id="lL323Zc3xE1iprVFfcl4-9" style="edgeStyle=orthogonalEdgeStyle;rounded=0;orthogonalLoop=1;jettySize=auto;html=1;exitX=0.5;exitY=1;exitDx=0;exitDy=0;entryX=0.5;entryY=0;entryDx=0;entryDy=0;" edge="1" parent="1" source="lL323Zc3xE1iprVFfcl4-10">
          <mxGeometry relative="1" as="geometry">
            <mxPoint x="250" y="800" as="targetPoint" />
          </mxGeometry>
        </mxCell>
        <mxCell id="lL323Zc3xE1iprVFfcl4-10" value="is_opening = 1" style="whiteSpace=wrap;html=1;aspect=fixed;" vertex="1" parent="1">
          <mxGeometry x="210" y="680" width="90" height="90" as="geometry" />
        </mxCell>
        <mxCell id="lL323Zc3xE1iprVFfcl4-11" value="is_opening = 0" style="whiteSpace=wrap;html=1;aspect=fixed;" vertex="1" parent="1">
          <mxGeometry x="740" y="195" width="90" height="90" as="geometry" />
        </mxCell>
        <mxCell id="lL323Zc3xE1iprVFfcl4-12" style="edgeStyle=orthogonalEdgeStyle;rounded=0;orthogonalLoop=1;jettySize=auto;html=1;exitX=1;exitY=0.5;exitDx=0;exitDy=0;" edge="1" parent="1" source="lL323Zc3xE1iprVFfcl4-14" target="lL323Zc3xE1iprVFfcl4-44">
          <mxGeometry relative="1" as="geometry" />
        </mxCell>
        <mxCell id="lL323Zc3xE1iprVFfcl4-13" style="edgeStyle=orthogonalEdgeStyle;rounded=0;orthogonalLoop=1;jettySize=auto;html=1;exitX=0;exitY=1;exitDx=0;exitDy=0;entryX=1;entryY=0;entryDx=0;entryDy=0;" edge="1" parent="1" source="lL323Zc3xE1iprVFfcl4-14" target="lL323Zc3xE1iprVFfcl4-63">
          <mxGeometry relative="1" as="geometry" />
        </mxCell>
        <mxCell id="lL323Zc3xE1iprVFfcl4-14" value="W3 == 1" style="rhombus;whiteSpace=wrap;html=1;" vertex="1" parent="1">
          <mxGeometry x="370" y="310" width="80" height="80" as="geometry" />
        </mxCell>
        <mxCell id="lL323Zc3xE1iprVFfcl4-15" value="Yes" style="text;strokeColor=none;fillColor=none;align=left;verticalAlign=middle;spacingLeft=4;spacingRight=4;overflow=hidden;points=[[0,0.5],[1,0.5]];portConstraint=eastwest;rotatable=0;whiteSpace=wrap;html=1;" vertex="1" parent="1">
          <mxGeometry x="330" y="340" width="30" height="30" as="geometry" />
        </mxCell>
        <mxCell id="lL323Zc3xE1iprVFfcl4-16" value="Start states" style="text;html=1;align=center;verticalAlign=middle;whiteSpace=wrap;rounded=0;" vertex="1" parent="1">
          <mxGeometry x="755" y="60" width="60" height="30" as="geometry" />
        </mxCell>
        <mxCell id="lL323Zc3xE1iprVFfcl4-17" style="edgeStyle=orthogonalEdgeStyle;rounded=0;orthogonalLoop=1;jettySize=auto;html=1;exitX=1;exitY=1;exitDx=0;exitDy=0;entryX=0.75;entryY=0;entryDx=0;entryDy=0;" edge="1" parent="1" source="lL323Zc3xE1iprVFfcl4-19">
          <mxGeometry relative="1" as="geometry">
            <mxPoint x="625" y="775" as="targetPoint" />
          </mxGeometry>
        </mxCell>
        <mxCell id="lL323Zc3xE1iprVFfcl4-18" style="edgeStyle=orthogonalEdgeStyle;rounded=0;orthogonalLoop=1;jettySize=auto;html=1;exitX=0;exitY=1;exitDx=0;exitDy=0;" edge="1" parent="1" source="lL323Zc3xE1iprVFfcl4-19">
          <mxGeometry relative="1" as="geometry">
            <mxPoint x="470" y="780" as="targetPoint" />
          </mxGeometry>
        </mxCell>
        <mxCell id="lL323Zc3xE1iprVFfcl4-19" value="T &amp;gt;= 5" style="rhombus;whiteSpace=wrap;html=1;" vertex="1" parent="1">
          <mxGeometry x="550" y="640" width="80" height="80" as="geometry" />
        </mxCell>
        <mxCell id="lL323Zc3xE1iprVFfcl4-20" value="Yes" style="text;strokeColor=none;fillColor=none;align=left;verticalAlign=middle;spacingLeft=4;spacingRight=4;overflow=hidden;points=[[0,0.5],[1,0.5]];portConstraint=eastwest;rotatable=0;whiteSpace=wrap;html=1;" vertex="1" parent="1">
          <mxGeometry x="145" y="210" width="30" height="30" as="geometry" />
        </mxCell>
        <mxCell id="lL323Zc3xE1iprVFfcl4-21" style="edgeStyle=orthogonalEdgeStyle;rounded=0;orthogonalLoop=1;jettySize=auto;html=1;entryX=0.5;entryY=0;entryDx=0;entryDy=0;" edge="1" parent="1" target="lL323Zc3xE1iprVFfcl4-24">
          <mxGeometry relative="1" as="geometry">
            <mxPoint x="170" y="660" as="sourcePoint" />
          </mxGeometry>
        </mxCell>
        <mxCell id="lL323Zc3xE1iprVFfcl4-22" style="edgeStyle=orthogonalEdgeStyle;rounded=0;orthogonalLoop=1;jettySize=auto;html=1;exitX=0;exitY=0.5;exitDx=0;exitDy=0;entryX=0.5;entryY=0;entryDx=0;entryDy=0;" edge="1" parent="1" source="lL323Zc3xE1iprVFfcl4-24" target="lL323Zc3xE1iprVFfcl4-39">
          <mxGeometry relative="1" as="geometry">
            <mxPoint x="65" y="835" as="targetPoint" />
          </mxGeometry>
        </mxCell>
        <mxCell id="lL323Zc3xE1iprVFfcl4-23" style="edgeStyle=orthogonalEdgeStyle;rounded=0;orthogonalLoop=1;jettySize=auto;html=1;exitX=1;exitY=0.5;exitDx=0;exitDy=0;" edge="1" parent="1" source="lL323Zc3xE1iprVFfcl4-24">
          <mxGeometry relative="1" as="geometry">
            <mxPoint x="160" y="870" as="targetPoint" />
          </mxGeometry>
        </mxCell>
        <mxCell id="lL323Zc3xE1iprVFfcl4-24" value="T &amp;lt;= 0" style="rhombus;whiteSpace=wrap;html=1;" vertex="1" parent="1">
          <mxGeometry x="90" y="735" width="80" height="80" as="geometry" />
        </mxCell>
        <mxCell id="lL323Zc3xE1iprVFfcl4-25" value="Yes" style="text;strokeColor=none;fillColor=none;align=left;verticalAlign=middle;spacingLeft=4;spacingRight=4;overflow=hidden;points=[[0,0.5],[1,0.5]];portConstraint=eastwest;rotatable=0;whiteSpace=wrap;html=1;" vertex="1" parent="1">
          <mxGeometry x="35" y="775" width="30" height="30" as="geometry" />
        </mxCell>
        <mxCell id="lL323Zc3xE1iprVFfcl4-26" value="No" style="text;strokeColor=none;fillColor=none;align=left;verticalAlign=middle;spacingLeft=4;spacingRight=4;overflow=hidden;points=[[0,0.5],[1,0.5]];portConstraint=eastwest;rotatable=0;whiteSpace=wrap;html=1;" vertex="1" parent="1">
          <mxGeometry x="160" y="815" width="30" height="30" as="geometry" />
        </mxCell>
        <mxCell id="lL323Zc3xE1iprVFfcl4-27" value="is_closing = 0" style="whiteSpace=wrap;html=1;aspect=fixed;" vertex="1" parent="1">
          <mxGeometry x="740" y="300" width="90" height="90" as="geometry" />
        </mxCell>
        <mxCell id="lL323Zc3xE1iprVFfcl4-28" value="is_open = 0" style="whiteSpace=wrap;html=1;aspect=fixed;" vertex="1" parent="1">
          <mxGeometry x="740" y="400" width="90" height="90" as="geometry" />
        </mxCell>
        <mxCell id="lL323Zc3xE1iprVFfcl4-29" value="is_closed = 1" style="whiteSpace=wrap;html=1;aspect=fixed;" vertex="1" parent="1">
          <mxGeometry x="740" y="500" width="90" height="90" as="geometry" />
        </mxCell>
        <mxCell id="lL323Zc3xE1iprVFfcl4-30" style="edgeStyle=orthogonalEdgeStyle;rounded=0;orthogonalLoop=1;jettySize=auto;html=1;exitX=0;exitY=1;exitDx=0;exitDy=0;" edge="1" parent="1" source="lL323Zc3xE1iprVFfcl4-32">
          <mxGeometry relative="1" as="geometry">
            <mxPoint x="100" y="570" as="targetPoint" />
          </mxGeometry>
        </mxCell>
        <mxCell id="lL323Zc3xE1iprVFfcl4-31" style="edgeStyle=orthogonalEdgeStyle;rounded=0;orthogonalLoop=1;jettySize=auto;html=1;exitX=1;exitY=1;exitDx=0;exitDy=0;entryX=0.5;entryY=0;entryDx=0;entryDy=0;" edge="1" parent="1" source="lL323Zc3xE1iprVFfcl4-32" target="lL323Zc3xE1iprVFfcl4-49">
          <mxGeometry relative="1" as="geometry">
            <mxPoint x="220" y="560" as="targetPoint" />
          </mxGeometry>
        </mxCell>
        <mxCell id="lL323Zc3xE1iprVFfcl4-32" value="is_open == 1" style="rhombus;whiteSpace=wrap;html=1;" vertex="1" parent="1">
          <mxGeometry x="120" y="460" width="80" height="80" as="geometry" />
        </mxCell>
        <mxCell id="lL323Zc3xE1iprVFfcl4-33" value="Yes" style="text;strokeColor=none;fillColor=none;align=left;verticalAlign=middle;spacingLeft=4;spacingRight=4;overflow=hidden;points=[[0,0.5],[1,0.5]];portConstraint=eastwest;rotatable=0;whiteSpace=wrap;html=1;" vertex="1" parent="1">
          <mxGeometry x="70" y="520" width="30" height="30" as="geometry" />
        </mxCell>
        <mxCell id="lL323Zc3xE1iprVFfcl4-34" value="No" style="text;strokeColor=none;fillColor=none;align=left;verticalAlign=middle;spacingLeft=4;spacingRight=4;overflow=hidden;points=[[0,0.5],[1,0.5]];portConstraint=eastwest;rotatable=0;whiteSpace=wrap;html=1;" vertex="1" parent="1">
          <mxGeometry x="240" y="520" width="30" height="30" as="geometry" />
        </mxCell>
        <mxCell id="lL323Zc3xE1iprVFfcl4-35" style="edgeStyle=orthogonalEdgeStyle;rounded=0;orthogonalLoop=1;jettySize=auto;html=1;exitX=0.5;exitY=1;exitDx=0;exitDy=0;entryX=0.5;entryY=0;entryDx=0;entryDy=0;" edge="1" parent="1" source="lL323Zc3xE1iprVFfcl4-36" target="lL323Zc3xE1iprVFfcl4-3">
          <mxGeometry relative="1" as="geometry" />
        </mxCell>
        <mxCell id="lL323Zc3xE1iprVFfcl4-36" value="&lt;div&gt;start&lt;/div&gt;&lt;div&gt;&lt;br&gt;&lt;/div&gt;" style="rounded=1;whiteSpace=wrap;html=1;" vertex="1" parent="1">
          <mxGeometry x="170" y="150" width="120" height="30" as="geometry" />
        </mxCell>
        <mxCell id="lL323Zc3xE1iprVFfcl4-37" value="goto start" style="rounded=1;whiteSpace=wrap;html=1;" vertex="1" parent="1">
          <mxGeometry x="40" y="570" width="120" height="30" as="geometry" />
        </mxCell>
        <mxCell id="lL323Zc3xE1iprVFfcl4-38" style="edgeStyle=orthogonalEdgeStyle;rounded=0;orthogonalLoop=1;jettySize=auto;html=1;exitX=0.5;exitY=1;exitDx=0;exitDy=0;entryX=0.5;entryY=0;entryDx=0;entryDy=0;" edge="1" parent="1">
          <mxGeometry relative="1" as="geometry">
            <mxPoint x="60" y="925" as="sourcePoint" />
            <mxPoint x="60" y="955" as="targetPoint" />
          </mxGeometry>
        </mxCell>
        <mxCell id="lL323Zc3xE1iprVFfcl4-39" value="is_open = 1" style="whiteSpace=wrap;html=1;aspect=fixed;" vertex="1" parent="1">
          <mxGeometry x="15" y="840" width="90" height="90" as="geometry" />
        </mxCell>
        <mxCell id="lL323Zc3xE1iprVFfcl4-40" value="goto start" style="rounded=1;whiteSpace=wrap;html=1;" vertex="1" parent="1">
          <mxGeometry x="10" y="1060" width="120" height="30" as="geometry" />
        </mxCell>
        <mxCell id="lL323Zc3xE1iprVFfcl4-41" value="goto start" style="rounded=1;whiteSpace=wrap;html=1;" vertex="1" parent="1">
          <mxGeometry x="545" y="775" width="120" height="30" as="geometry" />
        </mxCell>
        <mxCell id="lL323Zc3xE1iprVFfcl4-42" style="edgeStyle=orthogonalEdgeStyle;rounded=0;orthogonalLoop=1;jettySize=auto;html=1;exitX=0;exitY=1;exitDx=0;exitDy=0;entryX=0.592;entryY=0;entryDx=0;entryDy=0;entryPerimeter=0;" edge="1" parent="1" source="lL323Zc3xE1iprVFfcl4-44" target="lL323Zc3xE1iprVFfcl4-60">
          <mxGeometry relative="1" as="geometry">
            <mxPoint x="450" y="570" as="targetPoint" />
          </mxGeometry>
        </mxCell>
        <mxCell id="lL323Zc3xE1iprVFfcl4-43" style="edgeStyle=orthogonalEdgeStyle;rounded=0;orthogonalLoop=1;jettySize=auto;html=1;exitX=1;exitY=0.5;exitDx=0;exitDy=0;entryX=0;entryY=0.5;entryDx=0;entryDy=0;" edge="1" parent="1" source="lL323Zc3xE1iprVFfcl4-44" target="lL323Zc3xE1iprVFfcl4-79">
          <mxGeometry relative="1" as="geometry" />
        </mxCell>
        <mxCell id="lL323Zc3xE1iprVFfcl4-44" value="is_closed == 1" style="rhombus;whiteSpace=wrap;html=1;" vertex="1" parent="1">
          <mxGeometry x="440" y="430" width="80" height="80" as="geometry" />
        </mxCell>
        <mxCell id="lL323Zc3xE1iprVFfcl4-45" value="Yes" style="text;strokeColor=none;fillColor=none;align=left;verticalAlign=middle;spacingLeft=4;spacingRight=4;overflow=hidden;points=[[0,0.5],[1,0.5]];portConstraint=eastwest;rotatable=0;whiteSpace=wrap;html=1;" vertex="1" parent="1">
          <mxGeometry x="430" y="510" width="30" height="30" as="geometry" />
        </mxCell>
        <mxCell id="lL323Zc3xE1iprVFfcl4-46" value="No" style="text;strokeColor=none;fillColor=none;align=left;verticalAlign=middle;spacingLeft=4;spacingRight=4;overflow=hidden;points=[[0,0.5],[1,0.5]];portConstraint=eastwest;rotatable=0;whiteSpace=wrap;html=1;" vertex="1" parent="1">
          <mxGeometry x="730" y="730" width="30" height="30" as="geometry" />
        </mxCell>
        <mxCell id="lL323Zc3xE1iprVFfcl4-47" style="edgeStyle=orthogonalEdgeStyle;rounded=0;orthogonalLoop=1;jettySize=auto;html=1;exitX=0;exitY=1;exitDx=0;exitDy=0;" edge="1" parent="1" source="lL323Zc3xE1iprVFfcl4-49">
          <mxGeometry relative="1" as="geometry">
            <mxPoint x="170" y="660" as="targetPoint" />
          </mxGeometry>
        </mxCell>
        <mxCell id="lL323Zc3xE1iprVFfcl4-48" style="edgeStyle=orthogonalEdgeStyle;rounded=0;orthogonalLoop=1;jettySize=auto;html=1;exitX=1;exitY=1;exitDx=0;exitDy=0;entryX=1;entryY=0.5;entryDx=0;entryDy=0;" edge="1" parent="1" source="lL323Zc3xE1iprVFfcl4-49" target="lL323Zc3xE1iprVFfcl4-10">
          <mxGeometry relative="1" as="geometry">
            <mxPoint x="310" y="650" as="targetPoint" />
          </mxGeometry>
        </mxCell>
        <mxCell id="lL323Zc3xE1iprVFfcl4-49" value="is_opening == 1" style="rhombus;whiteSpace=wrap;html=1;" vertex="1" parent="1">
          <mxGeometry x="195" y="550" width="95" height="80" as="geometry" />
        </mxCell>
        <mxCell id="lL323Zc3xE1iprVFfcl4-50" value="Yes" style="text;strokeColor=none;fillColor=none;align=left;verticalAlign=middle;spacingLeft=4;spacingRight=4;overflow=hidden;points=[[0,0.5],[1,0.5]];portConstraint=eastwest;rotatable=0;whiteSpace=wrap;html=1;" vertex="1" parent="1">
          <mxGeometry x="140" y="620" width="30" height="30" as="geometry" />
        </mxCell>
        <mxCell id="lL323Zc3xE1iprVFfcl4-51" value="No" style="text;strokeColor=none;fillColor=none;align=left;verticalAlign=middle;spacingLeft=4;spacingRight=4;overflow=hidden;points=[[0,0.5],[1,0.5]];portConstraint=eastwest;rotatable=0;whiteSpace=wrap;html=1;" vertex="1" parent="1">
          <mxGeometry x="300" y="630" width="30" height="30" as="geometry" />
        </mxCell>
        <mxCell id="lL323Zc3xE1iprVFfcl4-52" value="goto start" style="rounded=1;whiteSpace=wrap;html=1;" vertex="1" parent="1">
          <mxGeometry x="220" y="800" width="120" height="30" as="geometry" />
        </mxCell>
        <mxCell id="lL323Zc3xE1iprVFfcl4-53" value="" style="edgeStyle=orthogonalEdgeStyle;rounded=0;orthogonalLoop=1;jettySize=auto;html=1;" edge="1" parent="1" source="lL323Zc3xE1iprVFfcl4-54">
          <mxGeometry relative="1" as="geometry">
            <mxPoint x="60" y="1065" as="targetPoint" />
          </mxGeometry>
        </mxCell>
        <mxCell id="lL323Zc3xE1iprVFfcl4-54" value="is_opening = 0" style="whiteSpace=wrap;html=1;aspect=fixed;" vertex="1" parent="1">
          <mxGeometry x="15" y="955" width="90" height="90" as="geometry" />
        </mxCell>
        <mxCell id="lL323Zc3xE1iprVFfcl4-55" style="edgeStyle=orthogonalEdgeStyle;rounded=0;orthogonalLoop=1;jettySize=auto;html=1;exitX=0;exitY=1;exitDx=0;exitDy=0;" edge="1" parent="1" source="lL323Zc3xE1iprVFfcl4-57">
          <mxGeometry relative="1" as="geometry">
            <mxPoint x="590" y="645" as="targetPoint" />
          </mxGeometry>
        </mxCell>
        <mxCell id="lL323Zc3xE1iprVFfcl4-56" style="edgeStyle=orthogonalEdgeStyle;rounded=0;orthogonalLoop=1;jettySize=auto;html=1;exitX=1;exitY=1;exitDx=0;exitDy=0;" edge="1" parent="1" source="lL323Zc3xE1iprVFfcl4-57">
          <mxGeometry relative="1" as="geometry">
            <mxPoint x="700" y="635" as="targetPoint" />
          </mxGeometry>
        </mxCell>
        <mxCell id="lL323Zc3xE1iprVFfcl4-57" value="is_closing == 1" style="rhombus;whiteSpace=wrap;html=1;" vertex="1" parent="1">
          <mxGeometry x="615" y="545" width="85" height="80" as="geometry" />
        </mxCell>
        <mxCell id="lL323Zc3xE1iprVFfcl4-58" value="Yes" style="text;strokeColor=none;fillColor=none;align=left;verticalAlign=middle;spacingLeft=4;spacingRight=4;overflow=hidden;points=[[0,0.5],[1,0.5]];portConstraint=eastwest;rotatable=0;whiteSpace=wrap;html=1;" vertex="1" parent="1">
          <mxGeometry x="560" y="605" width="30" height="30" as="geometry" />
        </mxCell>
        <mxCell id="lL323Zc3xE1iprVFfcl4-59" value="No" style="text;strokeColor=none;fillColor=none;align=left;verticalAlign=middle;spacingLeft=4;spacingRight=4;overflow=hidden;points=[[0,0.5],[1,0.5]];portConstraint=eastwest;rotatable=0;whiteSpace=wrap;html=1;" vertex="1" parent="1">
          <mxGeometry x="700" y="605" width="30" height="30" as="geometry" />
        </mxCell>
        <mxCell id="lL323Zc3xE1iprVFfcl4-60" value="goto start" style="rounded=1;whiteSpace=wrap;html=1;" vertex="1" parent="1">
          <mxGeometry x="380" y="590" width="120" height="30" as="geometry" />
        </mxCell>
        <mxCell id="lL323Zc3xE1iprVFfcl4-61" style="edgeStyle=orthogonalEdgeStyle;rounded=0;orthogonalLoop=1;jettySize=auto;html=1;exitX=0;exitY=1;exitDx=0;exitDy=0;entryX=1;entryY=0;entryDx=0;entryDy=0;" edge="1" parent="1" source="lL323Zc3xE1iprVFfcl4-63" target="lL323Zc3xE1iprVFfcl4-32">
          <mxGeometry relative="1" as="geometry" />
        </mxCell>
        <mxCell id="lL323Zc3xE1iprVFfcl4-62" style="edgeStyle=orthogonalEdgeStyle;rounded=0;orthogonalLoop=1;jettySize=auto;html=1;exitX=1;exitY=1;exitDx=0;exitDy=0;entryX=0;entryY=0.5;entryDx=0;entryDy=0;" edge="1" parent="1" source="lL323Zc3xE1iprVFfcl4-63" target="lL323Zc3xE1iprVFfcl4-44">
          <mxGeometry relative="1" as="geometry" />
        </mxCell>
        <mxCell id="lL323Zc3xE1iprVFfcl4-63" value="W4 == 1" style="rhombus;whiteSpace=wrap;html=1;" vertex="1" parent="1">
          <mxGeometry x="195" y="320" width="80" height="80" as="geometry" />
        </mxCell>
        <mxCell id="lL323Zc3xE1iprVFfcl4-64" value="Yes" style="text;strokeColor=none;fillColor=none;align=left;verticalAlign=middle;spacingLeft=4;spacingRight=4;overflow=hidden;points=[[0,0.5],[1,0.5]];portConstraint=eastwest;rotatable=0;whiteSpace=wrap;html=1;" vertex="1" parent="1">
          <mxGeometry x="300" y="390" width="30" height="20" as="geometry" />
        </mxCell>
        <mxCell id="lL323Zc3xE1iprVFfcl4-65" value="No" style="text;strokeColor=none;fillColor=none;align=left;verticalAlign=middle;spacingLeft=4;spacingRight=4;overflow=hidden;points=[[0,0.5],[1,0.5]];portConstraint=eastwest;rotatable=0;whiteSpace=wrap;html=1;" vertex="1" parent="1">
          <mxGeometry x="175" y="385" width="30" height="30" as="geometry" />
        </mxCell>
        <mxCell id="lL323Zc3xE1iprVFfcl4-66" style="edgeStyle=orthogonalEdgeStyle;rounded=0;orthogonalLoop=1;jettySize=auto;html=1;exitX=0.5;exitY=1;exitDx=0;exitDy=0;entryX=0.5;entryY=0;entryDx=0;entryDy=0;" edge="1" parent="1" source="lL323Zc3xE1iprVFfcl4-67">
          <mxGeometry relative="1" as="geometry">
            <mxPoint x="715" y="775" as="targetPoint" />
          </mxGeometry>
        </mxCell>
        <mxCell id="lL323Zc3xE1iprVFfcl4-67" value="is_closing = 1" style="whiteSpace=wrap;html=1;aspect=fixed;" vertex="1" parent="1">
          <mxGeometry x="665" y="635" width="90" height="90" as="geometry" />
        </mxCell>
        <mxCell id="lL323Zc3xE1iprVFfcl4-68" value="No" style="text;strokeColor=none;fillColor=none;align=left;verticalAlign=middle;spacingLeft=4;spacingRight=4;overflow=hidden;points=[[0,0.5],[1,0.5]];portConstraint=eastwest;rotatable=0;whiteSpace=wrap;html=1;" vertex="1" parent="1">
          <mxGeometry x="580" y="730" width="30" height="30" as="geometry" />
        </mxCell>
        <mxCell id="lL323Zc3xE1iprVFfcl4-69" value="Yes" style="text;strokeColor=none;fillColor=none;align=left;verticalAlign=middle;spacingLeft=4;spacingRight=4;overflow=hidden;points=[[0,0.5],[1,0.5]];portConstraint=eastwest;rotatable=0;whiteSpace=wrap;html=1;" vertex="1" parent="1">
          <mxGeometry x="440" y="690" width="30" height="30" as="geometry" />
        </mxCell>
        <mxCell id="lL323Zc3xE1iprVFfcl4-70" value="goto start" style="rounded=1;whiteSpace=wrap;html=1;" vertex="1" parent="1">
          <mxGeometry x="680" y="775" width="120" height="30" as="geometry" />
        </mxCell>
        <mxCell id="lL323Zc3xE1iprVFfcl4-71" value="T = 5" style="whiteSpace=wrap;html=1;aspect=fixed;" vertex="1" parent="1">
          <mxGeometry x="740" y="100" width="90" height="90" as="geometry" />
        </mxCell>
        <mxCell id="lL323Zc3xE1iprVFfcl4-72" style="edgeStyle=orthogonalEdgeStyle;rounded=0;orthogonalLoop=1;jettySize=auto;html=1;entryX=0.5;entryY=0;entryDx=0;entryDy=0;" edge="1" parent="1" source="lL323Zc3xE1iprVFfcl4-73" target="lL323Zc3xE1iprVFfcl4-75">
          <mxGeometry relative="1" as="geometry" />
        </mxCell>
        <mxCell id="lL323Zc3xE1iprVFfcl4-73" value="is_closing = 0" style="whiteSpace=wrap;html=1;aspect=fixed;" vertex="1" parent="1">
          <mxGeometry x="430" y="780" width="90" height="90" as="geometry" />
        </mxCell>
        <mxCell id="lL323Zc3xE1iprVFfcl4-74" style="edgeStyle=orthogonalEdgeStyle;rounded=0;orthogonalLoop=1;jettySize=auto;html=1;exitX=0.5;exitY=1;exitDx=0;exitDy=0;" edge="1" parent="1" source="lL323Zc3xE1iprVFfcl4-75" target="lL323Zc3xE1iprVFfcl4-76">
          <mxGeometry relative="1" as="geometry" />
        </mxCell>
        <mxCell id="lL323Zc3xE1iprVFfcl4-75" value="is_closed = 1" style="whiteSpace=wrap;html=1;aspect=fixed;" vertex="1" parent="1">
          <mxGeometry x="430" y="890" width="90" height="90" as="geometry" />
        </mxCell>
        <mxCell id="lL323Zc3xE1iprVFfcl4-76" value="goto start" style="rounded=1;whiteSpace=wrap;html=1;" vertex="1" parent="1">
          <mxGeometry x="415" y="1020" width="120" height="30" as="geometry" />
        </mxCell>
        <mxCell id="lL323Zc3xE1iprVFfcl4-77" style="edgeStyle=orthogonalEdgeStyle;rounded=0;orthogonalLoop=1;jettySize=auto;html=1;exitX=1;exitY=1;exitDx=0;exitDy=0;entryX=0.5;entryY=0;entryDx=0;entryDy=0;" edge="1" parent="1" source="lL323Zc3xE1iprVFfcl4-79" target="lL323Zc3xE1iprVFfcl4-57">
          <mxGeometry relative="1" as="geometry">
            <mxPoint x="670" y="470" as="targetPoint" />
            <Array as="points">
              <mxPoint x="680" y="400" />
              <mxPoint x="680" y="445" />
              <mxPoint x="671" y="445" />
              <mxPoint x="671" y="545" />
            </Array>
          </mxGeometry>
        </mxCell>
        <mxCell id="lL323Zc3xE1iprVFfcl4-78" style="edgeStyle=orthogonalEdgeStyle;rounded=0;orthogonalLoop=1;jettySize=auto;html=1;exitX=0;exitY=1;exitDx=0;exitDy=0;entryX=0.5;entryY=0;entryDx=0;entryDy=0;" edge="1" parent="1" source="lL323Zc3xE1iprVFfcl4-79" target="lL323Zc3xE1iprVFfcl4-85">
          <mxGeometry relative="1" as="geometry" />
        </mxCell>
        <mxCell id="lL323Zc3xE1iprVFfcl4-79" value="W2 == 1" style="rhombus;whiteSpace=wrap;html=1;" vertex="1" parent="1">
          <mxGeometry x="580" y="340" width="80" height="80" as="geometry" />
        </mxCell>
        <mxCell id="lL323Zc3xE1iprVFfcl4-80" value="Yes" style="text;strokeColor=none;fillColor=none;align=left;verticalAlign=middle;spacingLeft=4;spacingRight=4;overflow=hidden;points=[[0,0.5],[1,0.5]];portConstraint=eastwest;rotatable=0;whiteSpace=wrap;html=1;" vertex="1" parent="1">
          <mxGeometry x="565" y="415" width="30" height="30" as="geometry" />
        </mxCell>
        <mxCell id="lL323Zc3xE1iprVFfcl4-81" value="No" style="text;strokeColor=none;fillColor=none;align=left;verticalAlign=middle;spacingLeft=4;spacingRight=4;overflow=hidden;points=[[0,0.5],[1,0.5]];portConstraint=eastwest;rotatable=0;whiteSpace=wrap;html=1;" vertex="1" parent="1">
          <mxGeometry x="680" y="410" width="30" height="30" as="geometry" />
        </mxCell>
        <mxCell id="lL323Zc3xE1iprVFfcl4-82" value="goto start" style="rounded=1;whiteSpace=wrap;html=1;" vertex="1" parent="1">
          <mxGeometry x="480" y="540" width="120" height="30" as="geometry" />
        </mxCell>
        <mxCell id="lL323Zc3xE1iprVFfcl4-83" value="No" style="text;strokeColor=none;fillColor=none;align=left;verticalAlign=middle;spacingLeft=4;spacingRight=4;overflow=hidden;points=[[0,0.5],[1,0.5]];portConstraint=eastwest;rotatable=0;whiteSpace=wrap;html=1;" vertex="1" parent="1">
          <mxGeometry x="520" y="440" width="30" height="30" as="geometry" />
        </mxCell>
        <mxCell id="lL323Zc3xE1iprVFfcl4-84" value="No" style="text;strokeColor=none;fillColor=none;align=left;verticalAlign=middle;spacingLeft=4;spacingRight=4;overflow=hidden;points=[[0,0.5],[1,0.5]];portConstraint=eastwest;rotatable=0;whiteSpace=wrap;html=1;" vertex="1" parent="1">
          <mxGeometry x="460" y="330" width="30" height="30" as="geometry" />
        </mxCell>
        <mxCell id="lL323Zc3xE1iprVFfcl4-85" value="is_closing=0" style="whiteSpace=wrap;html=1;aspect=fixed;" vertex="1" parent="1">
          <mxGeometry x="575" y="450" width="70" height="70" as="geometry" />
        </mxCell>
        <mxCell id="lL323Zc3xE1iprVFfcl4-86" style="edgeStyle=orthogonalEdgeStyle;rounded=0;orthogonalLoop=1;jettySize=auto;html=1;exitX=0.25;exitY=1;exitDx=0;exitDy=0;" edge="1" parent="1" source="lL323Zc3xE1iprVFfcl4-85" target="lL323Zc3xE1iprVFfcl4-82">
          <mxGeometry relative="1" as="geometry">
            <mxPoint x="581" y="537" as="targetPoint" />
            <Array as="points">
              <mxPoint x="581" y="520" />
            </Array>
          </mxGeometry>
        </mxCell>
        <mxCell id="lL323Zc3xE1iprVFfcl4-87" value="goto start" style="rounded=1;whiteSpace=wrap;html=1;" vertex="1" parent="1">
          <mxGeometry x="120" y="870" width="120" height="30" as="geometry" />
        </mxCell>
      </root>
    </mxGraphModel>
  </diagram>
</mxfile>
